<svg width="79" height="78" viewBox="0 0 79 78" fill="none" xmlns="http://www.w3.org/2000/svg">
<g clip-path="url(#clip0_1186_7066)">
<path fill-rule="evenodd" clip-rule="evenodd" d="M79.0041 38.2254C79.0023 60.1416 61.3221 77.9077 39.5128 77.9077C17.7035 77.9077 0.023312 60.1416 0.0214844 38.2254L2.79375 32.0275L8.20416 38.2254C8.22864 55.558 22.2176 69.6012 39.471 69.6012C56.7244 69.6012 70.7134 55.558 70.7379 38.2254L75.8582 32.8056L79.0041 38.2254Z" fill="#1A3A66"/>
<path fill-rule="evenodd" clip-rule="evenodd" d="M10.1816 39.8948C11.1841 39.2846 12.8255 38.4667 15.7243 37.1599C19.2634 35.5646 24.6759 33.2408 29.5471 31.3678C30.8499 30.8669 32.1139 30.3983 33.3462 29.9589C29.7301 28.9931 25.5588 28.1186 22.9068 27.5643C20.2548 27.01 18.9038 26.8507 17.9334 26.6304L17.6813 25.998C18.0274 26.0266 18.4914 26.0876 19.1732 26.2065C20.4887 26.4358 22.6145 26.8804 25.9031 27.4933C28.3867 27.9564 31.5336 28.5153 34.9342 29.4028C35.9298 29.0606 36.9058 28.7373 37.8659 28.4316L37.616 28.3723C33.4171 27.381 27.8629 26.2938 24.2353 25.6397C21.705 25.1835 20.6298 25.0215 19.6632 24.8642L19.476 24.2605C21.7955 24.4614 25.0687 24.9883 26.9327 25.2935C29.9356 25.7856 33.8157 26.488 38.4796 27.619C38.8472 27.7081 39.2196 27.7999 39.596 27.8942C40.414 27.6465 41.5141 27.3002 42.3144 27.0762C39.3229 26.303 32.9267 24.7261 29.9449 24.3011C26.5566 23.8182 24.905 23.5588 24.0191 23.4686L22.846 23.3491L22.633 22.6955C22.7628 22.689 22.4695 22.681 22.8881 22.718C27.7013 23.1437 29.0118 23.4181 33.7762 24.2428C36.1816 24.6593 41.5157 25.8465 44.1245 26.4833C47.5384 25.6165 51.2987 24.5683 53.5949 24.1257C56.3288 23.5988 58.7463 23.1332 59.6205 23.0479C59.7174 23.0385 59.8013 23.0322 59.874 23.0288L59.6335 23.7664C59.3969 23.8274 59.0672 23.903 58.6052 24.0065C56.9676 24.3736 52.5218 25.5757 50.2259 26.129C47.9301 26.6823 47.705 26.774 46.6107 27.0803C47.3482 27.2735 47.8983 27.5139 48.6615 27.7272C50.3465 27.2398 52.4681 26.6778 53.8203 26.3231C56.9568 25.5006 59.3013 24.9642 60.5512 24.7193C61.8011 24.4744 61.6352 24.5194 62.057 24.4754L61.8826 25.0104C61.0581 25.232 58.9695 25.7573 56.6377 26.4073C54.3058 27.0574 52.5616 27.5442 50.4687 28.1657C51.3675 28.4274 52.2604 28.7198 53.1718 28.9995C53.602 28.8771 52.9788 29.0609 54.8957 28.5149C56.8125 27.9689 60.5509 26.8536 61.9249 26.4787C63.0531 26.171 63.5454 26.075 63.9235 26.038L63.7227 26.654C62.5589 26.9996 59.8853 27.7089 58.0253 28.2808C55.6686 29.0054 56.0241 28.8965 54.8902 29.2526C58.0704 30.2475 61.14 31.2794 63.4068 32.078C66.6355 33.2156 68.2353 33.8803 69.1375 34.4037V36.292C68.7795 36.184 68.2513 35.9677 67.2998 35.5824C66.3167 35.1841 64.8817 34.6048 62.7026 33.7677C60.5235 32.9308 57.6001 31.8359 53.8396 30.6197C53.3153 30.4501 52.7747 30.2782 52.2215 30.1051C51.4879 30.344 50.7424 30.5912 49.9968 30.8444C51.0472 31.1794 52.0686 31.5186 53.0423 31.8572C57.4937 33.4047 60.9486 34.9407 63.4466 36.1578C65.1239 36.9752 66.3699 37.649 67.2208 38.2144V41.2175C66.8754 41.2249 66.5101 41.0786 65.8649 40.6791C65.121 40.2183 64.0046 39.4202 62.184 38.3928C60.3638 37.3657 57.8393 36.1089 55.2748 34.8645C52.8923 33.7083 50.4755 32.5626 47.9604 31.5526C46.8451 31.9505 45.7535 32.3582 44.7257 32.7685C47.2661 33.8286 49.7448 34.9761 52.0127 36.0648C56.1784 38.0648 59.6334 39.8664 62.1313 41.2757C63.5849 42.0958 64.7144 42.7832 65.5437 43.3626V46.5503C65.2854 46.4596 64.9797 46.2823 64.5497 45.9829C63.8058 45.4649 62.6893 44.5809 60.8688 43.4136C59.0485 42.2465 56.524 40.7955 53.9595 39.3538C51.395 37.9121 48.7907 36.4794 46.0535 35.0283C45.078 34.5112 44.0855 33.9917 43.0221 33.4778C39.2067 35.1354 36.4696 36.8099 33.8492 38.457C30.9904 40.2542 28.2703 42.0183 25.5917 43.7878C22.9132 45.5574 20.2765 47.3324 18.3752 48.7386C16.4738 50.1451 15.3077 51.1831 14.5306 51.8006C13.9788 52.2392 13.623 52.4659 13.314 52.5642V49.3098C14.1941 48.5923 15.4315 47.7123 17.0566 46.6354C19.6655 44.9067 23.2741 42.6697 27.6251 40.1524C31.9189 37.6683 36.9362 34.9112 41.7494 32.8826C40.9654 32.5288 40.1368 32.1792 39.2455 31.8363C36.6035 32.8137 34.5004 33.727 32.4617 34.724C29.6166 36.1156 26.8965 37.6706 24.218 39.2341C21.5394 40.7975 18.9028 42.3698 17.0015 43.6299C15.1001 44.89 13.4536 46.1643 12.6765 46.7221C12.2506 47.0277 11.9414 47.2163 11.6804 47.3207V43.9773C12.5426 43.3598 14.1891 42.3002 15.6828 41.4252C18.2918 39.8972 21.9004 37.9376 26.5497 35.8635C29.9961 34.3259 34.0147 32.7253 37.8475 31.3233C37.3355 31.1443 36.8031 30.9675 36.2474 30.7935C36.1087 30.7501 35.9686 30.7069 35.8272 30.6639C32.3729 31.9401 28.7792 33.3612 25.7169 34.653C21.7893 36.31 18.7359 37.754 16.4598 38.8524C14.1838 39.9507 12.6851 40.7034 11.6582 41.2205C10.9956 41.5541 10.5296 41.7898 10.1816 41.9542V39.8948ZM43.3822 32.2189C44.482 31.7876 45.5652 31.3937 46.6199 31.0315C45.8169 30.73 44.994 30.4407 44.1207 30.1571C43.621 30.3192 43.1333 30.4797 42.662 30.6374C42.0346 30.8472 41.4363 31.0522 40.8631 31.2536C41.7031 31.5598 42.5446 31.8832 43.3822 32.2189ZM39.4357 30.7499C40.2255 30.4686 41.0027 30.1976 41.76 29.9393C42.027 29.8482 42.2915 29.7588 42.5537 29.6709C41.8591 29.4648 41.1277 29.2599 40.3468 29.0534C39.8087 29.2372 39.2622 29.427 38.7066 29.6231C38.2732 29.776 37.8341 29.9328 37.391 30.0927C37.6953 30.1846 38.0006 30.2793 38.3069 30.3771C38.682 30.497 39.0584 30.6214 39.4357 30.7499ZM48.5509 30.3914C49.341 30.1384 50.1093 29.9026 50.8502 29.6813C49.9763 29.4146 49.08 29.1471 48.1742 28.8831C47.4039 29.1187 46.6359 29.3568 45.8828 29.5941C46.7791 29.854 47.6719 30.1206 48.5509 30.3914ZM44.2218 29.1212C45.0055 28.8674 45.7649 28.6279 46.4994 28.4018C45.7499 28.1896 44.9996 27.9815 44.2557 27.7795C43.5098 28.0096 42.7497 28.2522 41.9728 28.5079C42.7165 28.7055 43.4682 28.9104 44.2218 29.1212Z" fill="#1A3A66"/>
<path fill-rule="evenodd" clip-rule="evenodd" d="M22.4783 6.09502C21.8239 6.45123 21.9526 6.64185 21.8985 6.7764C21.8441 6.91087 21.9963 6.9258 22.2765 7.087C22.5568 7.24803 22.9649 7.55523 23.1983 7.92614C23.4318 8.29688 23.4906 8.73105 23.4866 8.98961C23.4824 9.248 23.4153 9.33072 23.1598 9.19004C22.9042 9.04902 22.4601 8.68445 22.0692 8.32235C21.6783 7.95994 21.3401 7.59982 21.1227 7.46266C20.9814 7.37347 20.8909 7.37847 20.8267 7.43866L21.2854 8.00549C21.3685 8.10815 21.353 8.26056 21.2509 8.34417C21.1489 8.42774 20.9974 8.41214 20.9143 8.3095L20.8927 8.28276C20.9351 8.37943 20.9102 8.49717 20.825 8.56696C20.7313 8.64376 20.5957 8.63682 20.5099 8.55548C20.535 8.64518 20.5071 8.74581 20.431 8.80819C20.3488 8.87549 20.2346 8.87844 20.1499 8.8235C20.1711 8.91105 20.1426 9.00752 20.0688 9.06797C19.9667 9.15153 19.8152 9.13594 19.7322 9.03328L19.5581 8.81811L19.5418 8.83816C19.4413 8.96221 19.3876 9.02842 19.2496 9.0805C19.1116 9.13244 18.8889 9.17032 18.7142 9.23375C18.5396 9.29701 18.4129 9.38579 18.3899 9.53253C18.3669 9.6789 18.448 9.88298 18.6458 10.3484C18.8435 10.8138 19.1581 11.5408 19.1244 11.954C19.0906 12.3671 18.7084 12.4669 18.3771 12.0987C18.0458 11.7302 17.7655 10.8936 17.5729 10.4049C17.3801 9.91606 17.2756 9.77495 17.1263 9.79016C16.9769 9.80542 16.7829 9.97701 16.1225 10.7576C15.4621 11.5383 13.937 12.439 12.7936 13.8154C11.6502 15.1918 10.1807 17.1772 9.4331 18.0655C8.68546 18.9538 9.05759 19.234 8.86696 19.5873C8.67631 19.9406 8.6304 20.2337 8.63976 20.4757C8.64907 20.7174 8.71341 20.908 8.93095 21.0454C9.14833 21.1825 9.51884 21.2661 9.79145 21.3523C10.064 21.4382 10.2388 21.5264 10.4169 21.7966C10.595 22.0669 10.7764 22.5188 10.6109 22.6724C10.4454 22.8259 9.93287 22.6808 9.57227 22.6191C9.21164 22.5572 9.00241 22.5785 8.80536 22.5683C8.60813 22.558 8.42305 22.5162 8.31571 22.6486C8.27757 22.6956 8.19891 22.6972 8.10711 22.6981L8.22701 22.7439C8.35007 22.7908 8.41251 22.9306 8.36585 23.0544C8.31919 23.1782 8.1803 23.241 8.05731 23.194L8.02531 23.1818C8.11012 23.2441 8.14717 23.3586 8.10825 23.4619C8.06533 23.5756 7.94459 23.6379 7.82979 23.6109C7.89621 23.6758 7.92216 23.777 7.88736 23.8693C7.84979 23.969 7.75236 24.0291 7.65164 24.0242C7.71367 24.0893 7.73708 24.1872 7.70331 24.2767C7.65665 24.4005 7.51778 24.4633 7.39474 24.4164L7.03038 24.2773C6.91853 24.4837 6.80594 24.6674 6.78053 24.7407C6.73967 24.8587 7.23384 25.5363 7.58658 25.7432C7.93932 25.9501 8.72532 26.2642 9.08127 26.6529C9.4372 27.0417 9.36329 27.5043 9.2052 27.733C9.04727 27.9615 8.80536 27.956 8.358 27.7816C7.91042 27.607 7.25736 27.2641 6.81563 26.998C6.37402 26.7318 6.14395 26.5429 6.03177 26.4786C5.91955 26.414 5.92577 26.4741 5.7826 26.7013C5.63958 26.9282 5.34742 27.3226 5.25851 27.7869C5.16961 28.2512 4.66463 28.3409 4.59773 29.6225C4.53084 30.9042 4.23872 32.8439 4.08356 33.998C3.92839 35.152 3.97668 35.6821 3.89563 36.1147C3.81458 36.5472 4.29433 37.2354 4.22535 37.6151H2.68633C2.64823 36.9826 2.58209 36.2465 2.56484 35.4831C2.52992 33.9386 2.69477 32.2825 2.91867 31.0608C3.14236 29.8389 3.42503 29.0513 3.73458 28.3824C4.04429 27.7132 4.38116 27.163 4.49843 26.6805C4.61569 26.1981 4.51351 25.7833 4.39156 25.5453C4.26955 25.3074 4.12738 25.2461 3.65481 25.2716C3.18226 25.2971 2.37908 25.4093 1.8675 25.3477C1.35587 25.2862 1.13611 25.0505 1.33355 24.8407C1.53113 24.6308 2.14625 24.4467 2.71866 24.2138C2.78247 24.1878 4.92642 23.7719 5.04753 23.555L5.06333 23.5266L4.77885 23.418C4.65584 23.3711 4.59335 23.2313 4.64001 23.1075C4.67757 23.0079 4.77501 22.9477 4.87569 22.9526C4.8137 22.8875 4.79029 22.7896 4.82406 22.7001C4.86696 22.5864 4.98775 22.5241 5.10252 22.5511C5.03609 22.4862 5.01014 22.385 5.04495 22.2927C5.09166 22.169 5.23052 22.1061 5.35352 22.153L5.38544 22.1652C5.30067 22.1029 5.26361 21.9885 5.30255 21.8852C5.34926 21.7614 5.48813 21.6985 5.61114 21.7455L5.74031 21.7948C5.74566 21.451 5.6286 20.8806 5.7127 20.8425C5.82087 20.7935 5.7757 20.6465 5.40398 20.176C5.03229 19.7053 4.33382 18.9117 4.07771 18.3156C3.82144 17.7193 4.00756 17.3209 4.34204 17.3477C4.67654 17.3741 5.15954 17.8256 5.59839 18.2136C6.03716 18.6013 6.43172 18.9251 6.6702 19.1209C6.90867 19.3166 6.99094 19.3842 7.2623 19.0832C7.53365 18.7822 7.99427 18.1133 8.58996 16.9901C9.18564 15.8669 10.6686 14.4677 11.6599 13.2283C12.6512 11.989 13.151 10.9094 13.9857 10.2855C14.8204 9.66149 15.238 9.31518 15.5073 9.0678C15.7765 8.82004 15.8972 8.67128 15.9866 8.51037C16.0759 8.3493 16.134 8.17666 15.8797 7.8992C15.6254 7.62142 15.0589 7.23887 14.6657 6.9302C14.2724 6.62117 14.0529 6.38561 14.0509 6.06715C14.0489 5.74865 14.2648 5.34719 14.7158 5.48338C15.1671 5.6194 15.8536 6.293 16.5047 6.31768C16.8846 6.33205 17.7747 7.25506 17.8368 7.24874C17.8571 7.24668 17.9824 7.18321 18.1585 7.08872L17.9656 6.85047C17.8826 6.74782 17.8981 6.5954 18.0001 6.51184C18.0822 6.44454 18.1965 6.44156 18.2812 6.4965C18.26 6.40894 18.2885 6.31251 18.3623 6.25206C18.4561 6.17519 18.5916 6.18216 18.6774 6.26349C18.6523 6.17379 18.6802 6.07317 18.7563 6.01083C18.8584 5.92722 19.0099 5.94282 19.093 6.04547L19.1146 6.07216C19.0723 5.97547 19.0971 5.85778 19.1822 5.78804C19.2843 5.70443 19.4358 5.72003 19.5189 5.82268L19.7618 6.12281C20.1004 5.68708 19.983 4.69959 19.9397 4.47992C19.8779 4.16736 19.6846 3.59526 19.6071 3.20102C19.5297 2.80661 19.5683 2.59017 19.6718 2.34451C19.7753 2.09858 19.9434 1.82346 20.076 1.643C20.2087 1.46255 20.3057 1.37659 20.3956 1.51937C20.4854 1.66184 20.5677 2.03284 20.6954 2.55104C20.8231 3.06925 20.996 3.73456 21.2093 4.13028C21.4226 4.52562 21.6766 4.65168 21.9655 4.59947L26.6717 2.19909L27.1491 3.29727C27.3418 3.74033 23.8104 5.36992 22.4783 6.09502Z" fill="#1A3A66"/>
<path fill-rule="evenodd" clip-rule="evenodd" d="M53.8213 3.05598C54.8936 3.56753 56.2628 4.39361 56.5274 4.68621C56.792 4.97881 57.0531 5.23304 57.1073 5.36758C57.1616 5.50205 57.0095 5.51699 56.7293 5.67819C56.449 5.83922 56.0409 6.14641 55.8075 6.51733C55.5739 6.88806 55.5151 7.32224 55.5191 7.5808C55.5234 7.83919 55.5905 7.92191 55.846 7.78122C56.1016 7.6402 56.5457 7.27563 56.9366 6.91354C57.3275 6.55112 57.6657 6.191 57.883 6.05385C58.0244 5.96466 58.1149 5.96965 58.1791 6.02984L57.7203 6.59669C57.6373 6.69934 57.6528 6.85175 57.7549 6.93535C57.8569 7.01893 58.0084 7.00333 58.0915 6.90068L58.1131 6.87395C58.0707 6.97063 58.0956 7.08836 58.1807 7.15814C58.2745 7.23494 58.4101 7.228 58.4959 7.14667C58.4708 7.23637 58.4987 7.337 58.5748 7.39938C58.657 7.46667 58.7711 7.46962 58.8559 7.41468C58.8346 7.50223 58.8632 7.59871 58.937 7.65915C59.039 7.74271 59.1905 7.72713 59.2736 7.62447L59.4477 7.4093L59.464 7.42935C59.5645 7.55339 59.6182 7.6196 59.7561 7.67168C59.8942 7.72363 60.1168 7.7615 60.2916 7.82494C60.4662 7.8882 60.5928 7.97698 60.6159 8.12373C60.6389 8.27009 60.5578 8.47416 60.36 8.93961C60.1623 9.40502 59.8477 10.132 59.8814 10.5452C59.9152 10.9583 60.2973 11.0581 60.6286 10.6899C60.96 10.3214 61.2403 9.48477 61.4329 8.99607C61.6257 8.50725 61.7302 8.36614 61.8795 8.38135C62.0288 8.39661 62.2229 8.56819 62.8833 9.34882C63.5436 10.1294 65.0688 11.0302 66.2122 12.4066C67.3556 13.7829 68.825 15.7684 69.5727 16.6567C70.3203 17.545 69.9482 17.8252 70.1388 18.1785C70.3295 18.5318 70.3754 18.8249 70.366 19.0669C70.3567 19.3086 70.2924 19.4992 70.0748 19.6366C69.8574 19.7737 69.4869 19.8572 69.2143 19.9435C68.9418 20.0294 68.767 20.1176 68.5889 20.3878C68.4108 20.6581 68.2294 21.11 68.3949 21.2636C68.5604 21.4171 69.0729 21.272 69.4335 21.2103C69.7941 21.1484 70.0034 21.1697 70.2004 21.1595C70.3976 21.1492 70.5827 21.1074 70.6901 21.2398C70.7282 21.2868 70.8069 21.2884 70.8987 21.2893L70.7788 21.3351C70.6557 21.382 70.5933 21.5218 70.6399 21.6456C70.6866 21.7694 70.8255 21.8322 70.9485 21.7852L70.9805 21.773C70.8957 21.8353 70.8586 21.9498 70.8975 22.0531C70.9405 22.1668 71.0612 22.2291 71.176 22.2021C71.1096 22.267 71.0836 22.3682 71.1184 22.4605C71.156 22.5602 71.2534 22.6203 71.3542 22.6154C71.2921 22.6805 71.2687 22.7784 71.3025 22.8679C71.3491 22.9917 71.488 23.0545 71.6111 23.0076L71.9754 22.8685C72.0872 23.0749 72.1999 23.2586 72.2252 23.3319C72.2661 23.4499 71.7719 24.1275 71.4192 24.3344C71.0665 24.5412 70.2805 24.8554 69.9245 25.2441C69.5686 25.6328 69.6425 26.0955 69.8006 26.3242C69.9585 26.5527 70.2004 26.5472 70.6478 26.3728C71.0954 26.1982 71.7484 25.8553 72.1902 25.5892C72.6318 25.323 72.8618 25.1341 72.974 25.0698C73.0862 25.0052 73.08 25.0653 73.2232 25.2924C73.3662 25.5194 73.6584 25.9138 73.7473 26.3781C73.8362 26.8424 74.3412 26.9321 74.4081 28.2137C74.4749 29.4954 74.7671 31.4351 74.9222 32.5892C75.0774 33.7432 75.0291 34.2733 75.1102 34.7059C75.1912 35.1384 74.7115 35.8265 74.7804 36.2063H76.3195C76.3576 35.5738 76.4237 34.8377 76.4409 34.0742C76.4759 32.5298 76.311 30.8737 76.0871 29.652C75.8634 28.4301 75.5808 27.6425 75.2712 26.9736C74.9615 26.3044 74.6246 25.7542 74.5074 25.2717C74.3901 24.7892 74.4923 24.3745 74.6142 24.1365C74.7362 23.8986 74.8784 23.8372 75.351 23.8628C75.8235 23.8882 76.6267 24.0005 77.1383 23.9389C77.6499 23.8774 77.8697 23.6417 77.6722 23.4319C77.4747 23.2219 76.8595 23.0379 76.2871 22.805C76.2233 22.779 74.0794 22.3631 73.9583 22.1462L73.9425 22.1178L74.2269 22.0092C74.3499 21.9622 74.4124 21.8225 74.3658 21.6987C74.3282 21.5991 74.2308 21.5389 74.1301 21.5437C74.1921 21.4787 74.2155 21.3808 74.1817 21.2913C74.1388 21.1775 74.018 21.1153 73.9033 21.1423C73.9697 21.0774 73.9956 20.9762 73.9608 20.8839C73.9141 20.7601 73.7753 20.6973 73.6523 20.7442L73.6203 20.7564C73.7051 20.6941 73.7422 20.5797 73.7032 20.4764C73.6565 20.3526 73.5176 20.2897 73.3947 20.3367L73.2655 20.386C73.2601 20.0422 73.3772 19.4718 73.2931 19.4337C73.1849 19.3847 73.2301 19.2376 73.6018 18.7672C73.9735 18.2965 74.672 17.5029 74.9281 16.9068C75.1844 16.3105 74.9982 15.9121 74.6637 15.9389C74.3293 15.9653 73.8462 16.4168 73.4074 16.8048C72.9686 17.1924 72.5741 17.5163 72.3356 17.7121C72.0971 17.9078 72.0149 17.9753 71.7435 17.6744C71.4721 17.3734 71.0115 16.7045 70.4158 15.5813C69.8201 14.4581 68.3372 13.0589 67.3459 11.8195C66.3545 10.5802 65.8547 9.50061 65.0201 8.87665C64.1854 8.25268 63.7677 7.90637 63.4985 7.65899C63.2293 7.41123 63.1086 7.26247 63.0191 7.10156C62.9298 6.94049 62.8718 6.76785 63.1261 6.49038C63.3804 6.21261 63.9469 5.83005 64.3401 5.52139C64.7333 5.21235 64.9529 4.9768 64.9549 4.65833C64.9569 4.33984 64.741 3.93837 64.2899 4.07456C63.8387 4.21059 63.1522 4.88419 62.5011 4.90887C62.1212 4.92324 61.231 5.84625 61.169 5.83993C61.1486 5.83787 61.0234 5.7744 60.8473 5.67991L61.0401 5.44165C61.1232 5.33901 61.1077 5.18658 61.0057 5.10302C60.9235 5.03573 60.8093 5.03275 60.7245 5.08769C60.7458 5.00012 60.7173 4.90369 60.6435 4.84325C60.5497 4.76638 60.4141 4.77335 60.3283 4.85468C60.3534 4.76498 60.3255 4.66435 60.2495 4.60201C60.1474 4.51841 59.9959 4.53401 59.9128 4.63665L59.8912 4.66334C59.9335 4.56666 59.9087 4.44896 59.8236 4.37922C59.7215 4.29562 59.57 4.31122 59.4869 4.41386L59.244 4.714C58.9054 4.27827 59.0228 3.29078 59.0661 3.07111C59.1278 2.75854 59.3211 2.18644 59.3987 1.7922C59.4761 1.3978 59.4375 1.18136 59.334 0.935701C59.2305 0.689763 59.0624 0.414643 58.9297 0.23419C58.7971 0.0537368 58.7 -0.0322263 58.6102 0.110561C58.5204 0.253022 58.438 0.624027 58.3104 1.14222C58.1827 1.66043 58.0098 2.32575 57.7965 2.72147C57.5832 3.11681 57.3292 3.24287 57.0403 3.19066L54.2136 1.69494L53.8213 3.05598Z" fill="#1A3A66"/>
<path fill-rule="evenodd" clip-rule="evenodd" d="M53.2899 2.89915C53.0616 2.6426 52.5144 1.97638 52.1367 1.66846C51.4353 2.1128 50.8326 2.84851 49.4095 2.35404C48.9519 2.19506 48.7216 1.8351 48.6016 1.402C48.0018 2.01134 47.5314 2.31359 46.4375 1.22918C47.2073 1.26824 47.7199 1.63121 48.1514 0.903152C49.3044 -1.04209 49.2002 1.26886 49.6779 1.3236C52.3414 1.62873 50.7682 -1.60662 54.3239 1.78424C54.6095 2.09216 54.6095 2.59132 54.3239 2.8992C54.0383 3.20707 53.5754 3.20707 53.2899 2.89915ZM52.2339 1.60941C52.2678 1.59931 52.3004 1.58224 52.3315 1.55543C52.2986 1.57256 52.2661 1.59066 52.2339 1.60941ZM49.0049 0.986179C49.0129 0.978779 49.021 0.970772 49.0289 0.962067L49.0049 0.986179Z" fill="#1A3A66"/>
<path fill-rule="evenodd" clip-rule="evenodd" d="M17.7979 67.8826L19.6458 65.2964L20.4255 65.8603L19.6259 67.9574L21.3416 66.5229L22.1231 67.0881L20.2751 69.6744L19.794 69.3264L21.247 67.2891L19.2854 68.9586L18.7851 68.5967L19.7356 66.1959L18.2789 68.2306L17.7979 67.8826ZM23.9298 70.0017C23.6039 70.5846 23.1747 70.8895 22.6421 70.9165C22.394 70.9292 22.1406 70.8623 21.8817 70.7159C21.592 70.5519 21.3977 70.3415 21.2976 70.085C21.1138 69.6075 21.1656 69.1111 21.4536 68.5961C21.4854 68.5392 21.538 68.4618 21.611 68.3628L23.4789 69.4199C23.5735 69.1978 23.6029 68.9924 23.5674 68.8047C23.5279 68.5927 23.4081 68.4304 23.2089 68.3177C22.9064 68.1465 22.6246 68.1878 22.3622 68.4408L21.882 68.0023C22.0943 67.7677 22.3447 67.6389 22.6332 67.6159C22.9032 67.5943 23.18 67.6633 23.4632 67.8236C23.8743 68.0562 24.1161 68.3785 24.1881 68.791C24.2537 69.1727 24.1675 69.5765 23.9298 70.0017ZM23.2166 69.889L21.9178 69.154C21.8113 69.4187 21.7836 69.6421 21.8352 69.8252C21.886 70.0079 21.9912 70.145 22.1505 70.2351C22.3278 70.3354 22.506 70.3614 22.6846 70.3127C22.8641 70.2638 23.0413 70.1224 23.2166 69.889ZM25.8494 73.3953L25.3652 73.177L25.6472 72.5437L25.3082 72.3909L25.8741 71.1202L24.7322 70.6054L24.1663 71.8762L23.5812 71.6124L24.8757 68.7056L25.4608 68.9694L24.951 70.1142L26.0929 70.6289L26.6027 69.4841L27.1878 69.7479L26.1121 72.1634L26.3502 72.2707L25.8494 73.3953ZM27.5621 69.9546L29.594 70.6446L29.4229 71.1546L27.9984 70.6709L27.1571 73.1788L26.5497 72.9726L27.5621 69.9546ZM28.8777 73.7411L29.7326 70.6742L30.3499 70.8484L29.495 73.9153L28.8777 73.7411ZM33.7542 71.7022L33.5108 73.0367C33.6175 73.0473 33.7036 73.0225 33.7699 72.9631C33.837 72.9032 33.9401 72.7571 34.0807 72.5245C34.2649 72.2216 34.4305 72.0366 34.5773 71.971C34.7224 71.9066 34.9451 71.9017 35.2452 71.9571C35.259 71.9597 35.2903 71.9647 35.3369 71.9718L35.2515 72.44L35.1606 72.421C35.033 72.3974 34.9366 72.3962 34.8713 72.4173C34.806 72.4384 34.7485 72.4783 34.6996 72.5371C34.6514 72.596 34.5717 72.7207 34.4627 72.9117C34.4044 73.0133 34.3466 73.096 34.2884 73.1607C34.2301 73.2253 34.1386 73.2793 34.0138 73.3226C34.1462 73.3892 34.2475 73.4916 34.3168 73.6288C34.3862 73.766 34.4551 73.9551 34.5235 74.1962L34.7918 75.1322L34.0524 74.9957L33.8243 74.119C33.8221 74.1066 33.8145 74.0825 33.8002 74.046C33.7924 74.0227 33.776 73.9691 33.7509 73.8846C33.6992 73.7205 33.6521 73.6131 33.6089 73.5622C33.5658 73.5112 33.5072 73.4793 33.4325 73.4655L33.1827 74.835L32.5694 74.7218L32.8193 73.3522C32.7476 73.3389 32.6816 73.3472 32.6221 73.3776C32.5626 73.4081 32.48 73.4916 32.3746 73.6297C32.3148 73.7068 32.2797 73.7516 32.2695 73.7625C32.2525 73.7813 32.2361 73.8016 32.2211 73.8222L31.6997 74.5611L30.9603 74.4246L31.5416 73.6454C31.6847 73.4525 31.8139 73.3022 31.9295 73.1947C32.045 73.0871 32.1783 73.0258 32.3286 73.0113C32.2272 72.9263 32.1607 72.8431 32.129 72.7626C32.097 72.6828 32.0716 72.5839 32.0519 72.4665C32.018 72.2537 31.9887 72.1103 31.9647 72.0365C31.9407 71.9627 31.9019 71.9043 31.8478 71.8604C31.7936 71.8164 31.6981 71.7815 31.5618 71.7563C31.5451 71.7532 31.5182 71.749 31.481 71.7437L31.5664 71.2754C31.6132 71.2856 31.6435 71.2919 31.6573 71.2945C31.9617 71.3507 32.1702 71.436 32.2829 71.5495C32.3938 71.6642 32.4813 71.8952 32.5455 72.241C32.596 72.5104 32.6416 72.6839 32.6818 72.7629C32.7221 72.842 32.7941 72.8953 32.8976 72.9234L33.1411 71.5889L33.7542 71.7022ZM38.0303 75.3698L37.3418 75.3171L37.1238 74.5732L35.8577 74.4763L35.5407 75.1793L34.8647 75.1275L36.3305 72.0453L37.0058 72.0969L38.0303 75.3698ZM36.9571 74.0205L36.6074 72.8115L36.0923 73.9544L36.9571 74.0205ZM38.705 72.193L40.8883 72.1263L40.9682 74.7719L41.2466 74.7634L41.2838 75.9951L40.749 76.0115L40.728 75.3179L38.7437 75.3785L38.7646 76.0722L38.2298 76.0885L38.1927 74.8568L38.4622 74.8486C38.5851 74.5726 38.6625 74.2542 38.6937 73.8942C38.7248 73.5335 38.7318 73.0786 38.7152 72.5294L38.705 72.193ZM39.3312 72.7124C39.3602 73.6758 39.293 74.3811 39.1296 74.8281L40.3273 74.7915L40.2637 72.6839L39.3312 72.7124ZM41.3262 72.1467L41.9627 72.0686L42.1159 73.3315L42.9637 73.2274C43.1861 73.2001 43.3815 73.2075 43.5491 73.2489C43.7167 73.2903 43.8638 73.3828 43.9904 73.5271C44.1163 73.6715 44.1917 73.846 44.2165 74.0506C44.2424 74.2647 44.2092 74.4556 44.1168 74.6245C44.0237 74.7928 43.9125 74.9103 43.7817 74.9771C43.6518 75.0446 43.4552 75.0941 43.1926 75.1264L41.7098 75.3085L41.3262 72.1467ZM42.2814 74.696L42.9002 74.62C43.097 74.5959 43.2334 74.5694 43.3093 74.5406C43.3845 74.512 43.4487 74.4593 43.5011 74.3834C43.5535 74.3075 43.5734 74.2207 43.5614 74.1221C43.5445 73.9822 43.482 73.883 43.3748 73.8252C43.2668 73.7676 43.0834 73.755 42.8252 73.7867L42.1807 73.8658L42.2814 74.696ZM44.3108 71.7803L44.9472 71.7021L45.3307 74.8639L44.6944 74.942L44.3108 71.7803ZM45.9623 74.7452L45.2511 71.6414L46.1868 71.4244L47.2248 73.413L47.2863 71.1693L48.2241 70.9518L48.9353 74.0556L48.3579 74.1896L47.7958 71.7465L47.7475 74.3311L47.1471 74.4703L45.982 72.1673L46.5397 74.6112L45.9623 74.7452ZM48.4462 70.9278L49.0423 70.6903L49.5079 71.8732L50.302 71.5568C50.5103 71.4738 50.7012 71.4312 50.8738 71.4286C51.0464 71.426 51.2119 71.4781 51.3707 71.5855C51.5288 71.6932 51.6456 71.8428 51.721 72.0344C51.7999 72.235 51.8157 72.4281 51.7689 72.6151C51.721 72.8016 51.6429 72.9436 51.5333 73.0415C51.4245 73.1398 51.2467 73.2378 51.0007 73.3358L49.6119 73.8892L48.4462 70.9278ZM50.011 73.1512L50.5906 72.9203C50.775 72.8468 50.9002 72.7866 50.9665 72.7394C51.0321 72.6926 51.0809 72.6252 51.1125 72.5385C51.1442 72.4517 51.1416 72.3626 51.1052 72.2703C51.0536 72.1393 50.9683 72.0592 50.85 72.0306C50.7311 72.0023 50.5504 72.0368 50.3086 72.1331L49.7049 72.3737L50.011 73.1512ZM51.2416 69.8139L51.8377 69.5764L53.0035 72.5378L52.4074 72.7753L51.2416 69.8139ZM52.9733 69.9931L52.3506 70.1432C52.2392 69.6187 52.4641 69.2149 53.0253 68.9316C53.3573 68.7641 53.6449 68.7109 53.8875 68.7726C54.1302 68.8343 54.3008 68.9647 54.3999 69.1635C54.4676 69.2994 54.4899 69.4416 54.4677 69.5905C54.4451 69.7388 54.3771 69.8934 54.2647 70.0547C54.4841 70.0252 54.6707 70.0455 54.8233 70.117C54.9764 70.189 55.0958 70.3112 55.1827 70.4855C55.3076 70.736 55.3175 70.984 55.212 71.2305C55.1073 71.4767 54.8733 71.6919 54.5103 71.8751C54.2146 72.0243 53.9559 72.0927 53.7351 72.0797C53.5143 72.0667 53.293 71.9454 53.0705 71.7159L53.507 71.2816C53.6465 71.4259 53.7746 71.5007 53.8892 71.5059C54.0042 71.5117 54.1275 71.481 54.2592 71.4145C54.4397 71.3234 54.5519 71.2178 54.5956 71.0971C54.6386 70.9766 54.6352 70.8655 54.5843 70.7635C54.5261 70.6468 54.4321 70.5757 54.3029 70.5513C54.1743 70.5267 54.0155 70.562 53.8277 70.6568L53.698 70.7223L53.4839 70.2928L53.5491 70.2599C53.7236 70.1718 53.8376 70.0645 53.8904 69.9391C53.944 69.8134 53.9375 69.6847 53.8724 69.5542C53.8205 69.4501 53.7394 69.3816 53.6286 69.3479C53.5182 69.3149 53.3929 69.3333 53.2533 69.4038C53.0142 69.5245 52.9208 69.7209 52.9733 69.9931ZM54.6751 68.1252L56.56 67.0145L57.8895 69.2986L58.1299 69.157L58.7489 70.2203L58.2872 70.4923L57.9386 69.8935L56.2255 70.903L56.5741 71.5018L56.1124 71.7738L55.4935 70.7105L55.7262 70.5734C55.7027 70.2718 55.6191 69.9551 55.4751 69.6241C55.3307 69.2924 55.1202 68.8897 54.8442 68.4157L54.6751 68.1252ZM55.472 68.2794C55.9562 69.1111 56.2329 69.7626 56.3023 70.2339L57.3363 69.6246L56.2771 67.805L55.472 68.2794ZM61.0723 67.7188L60.5091 68.1207L59.8691 67.6884L58.8334 68.4275L59.0358 69.1721L58.4828 69.5667L57.6538 66.2532L58.2063 65.859L61.0723 67.7188ZM59.39 67.3703L58.3534 66.6649L58.6826 67.8752L59.39 67.3703Z" fill="#D6BF87"/>
<path fill-rule="evenodd" clip-rule="evenodd" d="M45.9309 61.5719C45.8438 62.0618 45.6347 62.5725 45.1773 62.7177C45.682 61.7906 45.4908 60.5224 44.9799 59.4515C44.864 59.2085 44.3115 58.3809 44.5523 58.1489C44.7405 57.9677 45.2216 58.3074 45.3767 58.4625C46.1027 59.1889 46.0796 60.7347 45.9309 61.5719Z" fill="#D6BF87"/>
<path fill-rule="evenodd" clip-rule="evenodd" d="M41.4141 56.1847C41.6071 55.9633 41.7899 55.6347 41.6066 55.351C41.3439 55.4294 41.172 55.6585 40.9891 55.856C39.9937 56.93 38.416 57.2255 37.1264 57.9281C37.0473 57.9713 36.9593 58.0383 36.9795 58.1363C37.0022 58.246 37.1384 58.2931 37.2459 58.3071C38.9053 58.5225 40.4531 57.2889 41.4141 56.1847Z" fill="#D6BF87"/>
<path fill-rule="evenodd" clip-rule="evenodd" d="M50.4227 54.1535C50.4571 53.9357 50.479 53.6979 50.3734 53.4841C50.3542 53.4451 50.33 53.4068 50.295 53.3814C50.1717 53.292 50.0363 53.4204 49.9818 53.5457C49.866 53.8142 49.8282 54.1191 49.776 54.4153C49.5945 55.4475 49.2185 56.3819 48.7109 57.2473C49.2305 57.5321 49.6716 56.399 49.8308 56.0674C50.1161 55.4735 50.3162 54.8277 50.4227 54.1535Z" fill="#D6BF87"/>
<path fill-rule="evenodd" clip-rule="evenodd" d="M55.1715 58.5227C55.3246 58.718 55.4683 58.9254 55.6581 59.0831C55.6282 58.5466 55.1883 58.0802 54.7712 57.6959C54.2368 57.2035 53.6711 56.7245 53.0258 56.4373C52.5719 56.2352 51.8778 56.0507 51.4551 56.2609C51.5732 56.4727 52.1612 56.4976 52.3765 56.5665C52.7341 56.6808 53.0846 56.8348 53.4201 57.0236C54.0845 57.3976 54.6908 57.9098 55.1715 58.5227Z" fill="#D6BF87"/>
<path fill-rule="evenodd" clip-rule="evenodd" d="M46.5815 56.8778C47.2398 57.3116 47.8705 57.8964 48.127 58.6358C48.1703 58.7606 48.2502 58.9243 48.3704 58.909C48.4984 58.893 48.4803 58.7004 48.4291 58.5691C48.0949 57.7103 47.5527 56.8715 46.776 56.3713C46.1239 55.9513 44.9831 55.7167 44.4688 56.2771C44.6265 56.3147 44.8109 56.2494 44.9777 56.2571C45.1547 56.2652 45.3335 56.301 45.509 56.3532C45.8836 56.4644 46.2448 56.656 46.5815 56.8778Z" fill="#D6BF87"/>
<path fill-rule="evenodd" clip-rule="evenodd" d="M51.9296 54.5169C52.0724 54.6602 52.3355 54.6835 52.4063 54.5179C52.4327 54.4563 52.4314 54.376 52.4803 54.333C52.5839 54.2423 52.7552 54.4069 52.9017 54.4157C53.0171 54.4226 53.1048 54.3221 53.1194 54.2077C53.1338 54.0932 53.0901 53.9705 53.0324 53.8602C52.9966 53.7917 52.9535 53.7182 52.964 53.6475C52.9833 53.5171 53.1506 53.5066 53.2715 53.4692C53.4368 53.4182 53.5561 53.2653 53.5717 53.0848C53.5871 52.9036 53.4982 52.7027 53.3479 52.5781C53.2874 52.5283 53.2179 52.4898 53.1654 52.4307C53.0037 52.249 53.0816 51.9844 53.1863 51.7977C53.2908 51.6105 53.4137 51.3883 53.3099 51.1711C53.2443 51.0337 53.0892 50.9384 52.9512 50.9508C52.8046 50.9635 52.6747 51.0815 52.5286 51.0242C52.3675 50.9609 52.3265 50.7321 52.3815 50.5811C52.4367 50.4305 52.5516 50.3125 52.5887 50.1537C52.6256 49.995 52.5261 49.763 52.3611 49.756C52.1318 49.7465 52.1223 50.1465 51.8995 50.1747C51.7388 50.1951 51.5926 49.9851 51.6076 49.8188C51.6226 49.6527 51.7393 49.5316 51.8505 49.4223C51.8394 49.3335 51.7093 49.2978 51.643 49.3446C51.5766 49.3914 51.5541 49.4799 51.5204 49.5562C51.4865 49.632 51.4224 49.7063 51.3361 49.6919C51.2069 49.6699 51.164 49.476 51.2209 49.3666C51.2779 49.2571 51.3888 49.1882 51.441 49.0759C51.5383 48.8646 51.3959 48.5853 51.2225 48.3886C51.1749 48.3346 51.1188 48.2795 51.0525 48.2678C50.9345 48.2466 50.8592 48.369 50.84 48.4842C50.8211 48.6 50.8265 48.7314 50.7545 48.8159C50.7341 48.84 50.7062 48.8593 50.6729 48.8588C50.612 48.8579 50.5625 48.7949 50.5298 48.7373C50.3716 48.4591 50.3139 48.1344 50.1201 47.8775C50.0676 47.8078 49.9974 47.7404 49.9172 47.7321C49.8075 47.7208 49.7334 47.825 49.7109 47.9308C49.6885 48.0366 49.6975 48.1534 49.6598 48.2526C49.622 48.3516 49.5087 48.4271 49.4073 48.3695C49.3575 48.3411 49.3243 48.2884 49.2964 48.2368C49.1553 47.9748 49.0816 47.6724 48.8728 47.4581C48.7985 47.3818 48.7023 47.3178 48.605 47.3179C48.3952 47.3174 48.3308 47.6046 48.4193 47.8128C48.5079 48.021 48.6853 48.1848 48.7981 48.3834C48.8188 48.42 48.8381 48.4604 48.8361 48.4998C48.8327 48.5684 48.7631 48.6096 48.6952 48.6017C48.6272 48.5939 48.5635 48.5489 48.5108 48.4974C48.3492 48.3406 48.2641 48.1246 48.164 47.9244C48.0638 47.7242 47.9252 47.5164 47.7226 47.4366C47.6861 47.4223 47.6456 47.4125 47.6127 47.4262C47.5544 47.4504 47.5478 47.5315 47.5573 47.5994C47.5813 47.7719 47.662 47.9434 47.783 48.0791C47.783 48.1945 47.614 48.2075 47.5189 48.1307C47.4239 48.0539 47.3754 47.9336 47.2985 47.8371C47.2653 47.7954 47.2126 47.7541 47.1693 47.7721C47.1287 47.7886 47.1255 47.8457 47.1307 47.8929C47.1467 48.0393 47.1954 48.1867 47.2718 48.3202C47.2438 48.3722 47.164 48.3662 47.1083 48.3316C47.0525 48.2969 47.0102 48.2418 46.9583 48.2001C46.7361 48.0222 46.4189 48.1744 46.3496 48.4237C46.28 48.6727 46.3835 48.961 46.5058 49.217C46.551 49.3119 46.6024 49.4097 46.6848 49.4761C46.8741 49.6286 47.1194 49.5489 47.3371 49.5195C47.6163 49.4822 47.9209 49.5466 48.1875 49.6991C48.3816 49.8104 48.5553 49.9663 48.7564 50.0585C48.9077 50.1281 49.073 50.1608 49.2103 50.2612C49.3396 50.3554 49.429 50.4992 49.5522 50.6031C49.7892 50.8028 50.1115 50.8247 50.3658 50.9979C50.5898 51.1509 50.7332 51.4007 50.9226 51.5992C51.0938 51.7784 51.3056 51.9185 51.4526 52.1183C51.6357 52.3676 51.6941 52.6763 51.725 52.9692C51.7546 53.2496 51.7762 53.5412 51.7553 53.8162C51.737 54.0577 51.7214 54.3075 51.9296 54.5168V54.5169Z" fill="#D6BF87"/>
<path fill-rule="evenodd" clip-rule="evenodd" d="M51.0256 52.4384C51.2252 52.6178 51.3409 52.8735 51.4176 53.1246C51.4942 53.3754 51.5395 53.6326 51.6362 53.8791C51.6884 54.0123 51.764 54.1507 51.8877 54.2219C52.0115 54.2931 52.1875 54.2553 52.2057 54.1227C52.2193 54.0224 52.144 53.9005 52.1933 53.8173C52.2557 53.7123 52.4511 53.78 52.5223 53.6817C52.5879 53.5914 52.4955 53.4505 52.4048 53.3597C52.3144 53.2696 52.2082 53.1478 52.248 53.0409C52.2752 52.9667 52.3601 52.9424 52.4312 52.9123C52.5718 52.8527 52.6912 52.7335 52.7093 52.5736C52.7275 52.4136 52.6163 52.2188 52.456 52.1789C52.398 52.1646 52.3402 52.1704 52.282 52.1676C52.1444 52.1617 51.9875 52.093 51.9222 51.9597C51.8631 51.839 51.8957 51.7047 51.945 51.5947C51.9941 51.4845 52.0597 51.3785 52.0637 51.2518C52.0677 51.125 51.9794 50.9699 51.8538 50.9559C51.7849 50.9484 51.7212 50.9848 51.6524 50.9691C51.5428 50.9443 51.4854 50.8096 51.4633 50.6973C51.4412 50.585 51.4222 50.4556 51.328 50.3846C51.1514 50.2516 50.9449 50.47 50.7414 50.4102C50.5615 50.3571 50.4843 50.1176 50.5066 49.9382C50.5289 49.7582 50.6111 49.593 50.5949 49.4069C50.5729 49.1542 50.343 48.9083 50.0959 48.8736C50.0239 48.8634 49.9457 48.8726 49.9041 48.926C49.8679 48.9729 49.8679 49.0413 49.8693 49.1051C49.8733 49.2782 49.8772 49.4512 49.8812 49.6244C49.8841 49.7552 49.8383 49.9286 49.7104 49.8961C49.6444 49.8797 49.5985 49.8102 49.5691 49.7458C49.5 49.5947 49.4612 49.4162 49.3284 49.3159C49.301 49.2953 49.2681 49.2784 49.2374 49.2828C49.1644 49.2929 49.1656 49.3979 49.1825 49.4754C49.2131 49.6157 49.2439 49.7563 49.2747 49.8971C49.0459 49.8203 48.9496 49.5389 48.8403 49.3147C48.7176 49.0627 48.5304 48.8362 48.3056 48.6681C48.146 48.5489 47.9194 48.4613 47.7909 48.579C47.6693 48.6901 47.7196 48.9137 47.8156 49.0769C47.9119 49.2406 48.0479 49.3902 48.0915 49.5695C47.9301 49.4445 47.7688 49.3197 47.6074 49.1949C47.4944 49.1074 47.3779 49.0182 47.2468 48.9761C47.1158 48.9341 46.9653 48.9509 46.8915 49.0523C46.8385 49.125 46.8333 49.2272 46.8368 49.3243C46.8446 49.5354 46.9004 49.7737 47.0715 49.917C47.3326 50.1355 47.6802 50.011 47.9959 50.0436C48.4995 50.0959 48.941 50.5977 49.0656 51.1114C49.1299 51.3761 49.1502 51.6878 49.3705 51.8597C49.6536 52.0808 49.971 51.8801 50.2666 52.0284C50.3788 52.0849 50.4636 52.1802 50.5798 52.2303C50.7401 52.2991 50.8831 52.3104 51.0256 52.4384Z" fill="#D6BF87"/>
<path fill-rule="evenodd" clip-rule="evenodd" d="M59.6317 55.1174C59.6835 55.0544 59.6988 54.9546 59.7737 54.9214C59.8698 54.8785 59.9851 54.9729 60.093 55.0161C60.3447 55.1169 60.6053 54.854 60.5106 54.5951C60.472 54.4899 60.3927 54.4019 60.3329 54.3052C60.2731 54.2085 60.2324 54.0848 60.2816 53.9974C60.3675 53.8443 60.6098 53.9361 60.7892 53.9196C60.9546 53.9046 61.0875 53.7712 61.1054 53.6026C61.1233 53.4338 61.0249 53.242 60.8714 53.1464C60.7771 53.0877 60.6561 53.0531 60.6068 52.9527C60.5048 52.7451 60.8392 52.5981 60.7853 52.3784C60.774 52.332 60.7461 52.2898 60.7189 52.249C60.6038 52.0772 60.4887 51.9053 60.3736 51.7333C60.3533 51.703 60.3321 51.6703 60.3293 51.6357C60.3244 51.576 60.3735 51.5361 60.4111 51.4962C60.531 51.369 60.5565 51.1544 60.4733 50.9734C60.4448 50.9115 60.4028 50.8519 60.3448 50.8171C60.1581 50.7054 59.9376 50.9062 59.7514 50.794C59.6282 50.7197 59.5969 50.5457 59.6341 50.4195C59.6715 50.2932 59.7569 50.1935 59.8095 50.0749C59.8875 49.899 59.8849 49.6689 59.768 49.4875C59.651 49.3054 59.4086 49.1975 59.2375 49.2782C59.1236 49.3315 59.0008 49.4549 58.8896 49.365C58.838 49.3233 58.8211 49.2529 58.8145 49.1899C58.8012 49.0614 58.8142 48.9333 58.7875 48.8047C58.7609 48.6761 58.6801 48.5388 58.5567 48.4968C58.3891 48.4394 58.2091 48.5752 58.0583 48.4723C58.006 48.4367 57.9689 48.3776 57.9132 48.3486C57.7327 48.2557 57.63 48.5476 57.444 48.5698C57.3006 48.5869 57.1656 48.4335 57.111 48.286C57.0563 48.138 57.0458 47.979 56.9695 47.8392C56.8656 47.6487 56.6421 47.5272 56.4468 47.5485C56.2516 47.5699 56.0973 47.7278 56.069 47.9258C56.0565 48.0136 56.0474 48.13 55.9608 48.1386C55.9306 48.1414 55.8993 48.1283 55.8701 48.1141C55.7632 48.0611 55.6648 47.9843 55.585 47.8916C55.4541 47.74 55.3408 47.5257 55.1558 47.5026C54.9441 47.4759 54.8459 47.721 54.8023 47.9249C54.7077 47.8058 54.6102 47.6842 54.4853 47.6011C54.3601 47.5174 54.1998 47.4799 54.0836 47.5433C53.9393 47.6218 53.9113 47.8184 53.8964 47.9927C53.7263 47.9849 53.5529 48.0181 53.4357 48.1274C53.3184 48.2367 53.2733 48.4344 53.3622 48.5951C53.4512 48.7561 53.6415 48.8403 53.7395 48.9962C53.6293 48.905 53.463 48.9119 53.3839 49.0087C53.3047 49.1055 53.3216 49.2756 53.4182 49.3821C53.6678 49.6572 54.0913 49.369 54.4105 49.5422C54.5319 49.6084 54.6165 49.7307 54.7201 49.8264C54.9784 50.0649 55.3302 50.1183 55.6485 50.2329C56.3856 50.4995 56.9807 51.1217 57.519 51.7345C58.0547 52.3449 58.5827 52.99 58.877 53.7326C59.0093 54.0664 59.0442 54.3697 59.0956 54.7067C59.1302 54.9322 59.397 55.4034 59.6317 55.1174Z" fill="#D6BF87"/>
<path fill-rule="evenodd" clip-rule="evenodd" d="M58.9717 54.6084C59.0104 54.7153 59.1027 54.8148 59.2096 54.8327C59.3166 54.8504 59.4212 54.7601 59.3969 54.6507C59.5604 54.6746 59.7563 54.6696 59.821 54.5266C59.8739 54.4093 59.8097 54.2593 59.7566 54.1267C59.7033 53.9941 59.6655 53.829 59.7557 53.7413C59.8914 53.6092 60.2034 53.7666 60.298 53.5992C60.3213 53.558 60.3234 53.5056 60.3216 53.455C60.3158 53.291 60.2255 53.0775 60.0652 53.0673C59.9767 53.0617 59.8957 53.1252 59.8094 53.0914C59.698 53.0477 59.6829 52.8825 59.7381 52.7886C59.7933 52.6947 59.8903 52.6329 59.9336 52.5315C59.9769 52.4301 59.9186 52.259 59.8047 52.2547C59.7727 52.2535 59.742 52.2662 59.7101 52.2573C59.6536 52.2416 59.6265 52.1666 59.6357 52.1107C59.6448 52.0549 59.6771 52.0091 59.6916 51.9552C59.7325 51.8025 59.5919 51.6042 59.4305 51.5869C59.3732 51.5808 59.3179 51.5941 59.2606 51.5879C59.2032 51.5818 59.1375 51.547 59.1212 51.4888C59.1106 51.4509 59.1238 51.414 59.1366 51.3804C59.1814 51.2598 59.2202 51.1366 59.2525 51.0105C59.284 50.8874 59.3089 50.7542 59.2667 50.6237C59.2243 50.4935 59.0912 50.3726 58.9673 50.3939C58.8748 50.4102 58.8192 50.4952 58.7471 50.5511C58.6748 50.6064 58.5437 50.6185 58.4922 50.5275C58.4735 50.4946 58.4713 50.4564 58.474 50.4216C58.4824 50.2997 58.5391 50.1946 58.5808 50.0848C58.6325 49.9492 58.6618 49.7954 58.6224 49.6425C58.583 49.4898 58.4612 49.3404 58.3114 49.3067C58.1551 49.2712 58.0132 49.3672 57.9337 49.4928C57.9186 49.5172 57.9034 49.5436 57.8771 49.5548C57.8179 49.5796 57.7451 49.5097 57.7243 49.441C57.7035 49.3724 57.7112 49.301 57.6883 49.233C57.631 49.0629 57.3647 49.0079 57.2885 49.1503C57.2717 49.182 57.263 49.2196 57.2384 49.2447C57.1816 49.3028 57.067 49.2599 57.0116 49.184C56.9562 49.108 56.9429 49.0141 56.9273 48.9256C56.9115 48.8367 56.887 48.7405 56.819 48.6762C56.7177 48.5802 56.5596 48.6005 56.4714 48.6833C56.3832 48.7662 56.3476 48.8934 56.3148 49.0153C56.1814 48.997 56.1174 48.8275 56.0331 48.7109C55.8785 48.4968 55.5544 48.4361 55.385 48.5901C55.3557 48.6166 55.328 48.6493 55.2874 48.6544C55.2302 48.6609 55.1754 48.6107 55.1305 48.5655C54.9583 48.3913 54.7653 48.218 54.5403 48.1621C54.315 48.1057 54.0581 48.2168 54.0416 48.4438C54.0274 48.638 54.1877 48.8288 54.3615 48.9417C54.4208 48.9799 54.4921 49.0259 54.5002 49.0937C54.514 49.2058 54.3521 49.218 54.2504 49.1634C54.1486 49.1088 54.0328 49.0232 53.9404 49.0687C53.8826 49.0974 53.8605 49.1709 53.8661 49.2411C53.8781 49.3925 53.9967 49.5327 54.1315 49.6147C54.2661 49.6964 54.417 49.7326 54.5638 49.773C56.4185 50.2864 58.1049 51.8208 58.8468 53.6706C58.9132 53.8362 58.966 54.0008 58.966 54.1722C58.966 54.3202 58.9161 54.4544 58.9717 54.6084L58.9717 54.6084Z" fill="#D6BF87"/>
<path fill-rule="evenodd" clip-rule="evenodd" d="M58.106 53.2748C58.2932 53.5007 58.4336 53.7593 58.5837 54.0099C58.7066 54.2147 58.8861 54.4451 59.1045 54.4389C59.2696 54.4344 59.3879 54.2613 59.3423 54.0912C59.3236 54.0215 59.2817 53.9499 59.2958 53.8837C59.3168 53.7836 59.4511 53.7603 59.4831 53.6646C59.4943 53.6316 59.4916 53.5938 59.4886 53.557C59.4713 53.3324 59.4461 53.0882 59.2955 52.9045C59.2356 52.8313 59.1511 52.7484 59.1741 52.6663C59.1866 52.6221 59.2278 52.5974 59.2623 52.5699C59.3818 52.4747 59.4398 52.2951 59.3718 52.1348C59.3038 51.9746 59.0939 51.8694 58.9635 51.9501C58.916 51.9795 58.8785 52.0302 58.8201 52.0335C58.7752 52.036 58.7293 52.0088 58.6932 51.9753C58.5809 51.8708 58.5426 51.7088 58.545 51.5649C58.5476 51.4214 58.5831 51.2843 58.5859 51.1406C58.5866 51.0968 58.5832 51.049 58.5552 51.0114C58.5057 50.9451 58.4108 50.9492 58.344 50.9774C58.2771 51.0052 58.2126 51.05 58.136 51.0377C58.0039 51.0167 57.9306 50.8347 57.9657 50.7107C58.0006 50.5861 58.1019 50.5035 58.1847 50.4108C58.2124 50.3801 58.2386 50.3464 58.2502 50.3048C58.2949 50.1437 58.0777 49.9723 57.9131 49.9969C57.7486 50.0219 57.6409 50.1617 57.5467 50.2935C57.3635 50.221 57.5081 49.8732 57.3352 49.7715C57.2004 49.692 57.0456 49.8782 56.9178 49.7854C56.7982 49.6986 56.8677 49.4769 56.744 49.3967C56.6705 49.349 56.5806 49.395 56.5441 49.4644C56.5075 49.5335 56.5046 49.6197 56.4812 49.696C56.4747 49.7172 56.4658 49.7388 56.4477 49.7501C56.3796 49.7937 56.3082 49.6702 56.2825 49.5829C56.2231 49.3813 56.0887 49.1933 55.9148 49.069C55.826 49.0056 55.72 48.9571 55.6225 48.9725C55.5252 48.9883 55.4491 49.0895 55.4855 49.191C55.5187 49.2835 55.6206 49.3338 55.6877 49.4084C55.755 49.483 55.7511 49.637 55.6584 49.6188C55.6336 49.6142 55.6112 49.5968 55.5912 49.5787C55.4899 49.4875 55.4156 49.363 55.3028 49.2893C55.1899 49.2153 55.0115 49.2322 55.0021 49.3589C54.9962 49.4373 55.0577 49.5123 55.1145 49.5753C55.0364 49.619 54.9613 49.4847 54.8887 49.4118C54.7891 49.312 54.6232 49.3274 54.5431 49.4202C54.4631 49.5134 54.4563 49.6593 54.4894 49.7921C54.5076 49.8649 54.5373 49.9373 54.586 49.9968C54.6756 50.106 54.8128 50.1546 54.9383 50.2089C55.3967 50.4072 55.83 50.8085 55.9338 51.2954C55.9769 51.4974 55.9615 51.6995 55.9934 51.9021C56.0789 52.4435 56.4781 52.8411 56.9939 52.9562C57.3884 53.044 57.7919 52.8953 58.106 53.2748Z" fill="#D6BF87"/>
<path fill-rule="evenodd" clip-rule="evenodd" d="M23.9708 59.7299C25.9462 59.4958 27.9555 59.4197 29.9582 59.3179C31.9599 59.2163 33.9625 59.0886 35.9079 58.7441C37.4963 58.4628 39.0911 58.1808 40.6279 57.746C41.9228 57.3796 43.1632 56.8832 44.281 56.177C45.5458 55.3778 46.6351 54.3465 47.6205 53.2245C47.7651 53.0597 47.9075 52.8925 48.0483 52.7241C48.1744 52.5732 48.4395 52.8019 48.3131 52.9528C47.3111 54.1511 46.2129 55.2767 44.9304 56.1673C43.8361 56.9273 42.6137 57.4906 41.322 57.8981C39.8303 58.3686 38.2681 58.6616 36.7106 58.9436C35.755 59.1166 34.7962 59.2705 33.822 59.3748C32.8291 59.4814 31.8279 59.551 30.8245 59.6075C28.7989 59.7213 26.7619 59.7812 24.7538 59.9825C24.5092 60.007 24.2651 60.0337 24.0215 60.0626C23.8197 60.0865 23.7698 59.7535 23.9708 59.7299Z" fill="#D6BF87"/>
<path fill-rule="evenodd" clip-rule="evenodd" d="M24.2799 57.3048C26.4026 57.8692 28.5373 58.3436 30.6757 58.6716C32.8024 58.9977 34.9327 59.1764 37.0354 59.15C39.2704 59.1218 41.4401 58.8145 43.5848 58.4055C45.6087 58.0195 47.613 57.5475 49.5175 56.8457C51.4102 56.1484 53.2022 55.2133 54.7216 53.923C54.9113 53.7618 55.0961 53.5951 55.2768 53.4236C55.4188 53.2892 55.6249 53.574 55.4846 53.7069C54.0302 55.0855 52.2804 56.1057 50.4095 56.8709C48.5114 57.6472 46.4937 58.1666 44.451 58.5809C42.3079 59.0155 40.1338 59.3761 37.9017 59.462C35.79 59.543 33.6449 59.4068 31.5003 59.118C29.3429 58.8275 27.1862 58.3812 25.042 57.8347C24.7765 57.767 24.5115 57.6979 24.2465 57.6277C24.0393 57.5723 24.0717 57.2493 24.2799 57.3048Z" fill="#D6BF87"/>
<path fill-rule="evenodd" clip-rule="evenodd" d="M55.3659 54.4364C56.2793 54.242 56.7945 53.2914 57.6817 53.0256C57.5684 52.9992 57.4564 52.9578 57.3495 52.9026C57.3789 52.7939 57.4084 52.6852 57.4378 52.5765C57.3345 52.5717 57.2313 52.5668 57.128 52.562C57.1219 52.4145 57.1157 52.2669 57.1096 52.1194C57.0044 52.1508 56.8992 52.1823 56.794 52.2136C56.7438 52.084 56.6937 51.9543 56.6434 51.8245C56.5817 51.8612 56.5198 51.8979 56.4581 51.9347C56.4214 51.8054 56.3845 51.6757 56.3477 51.5461C56.2779 51.6046 56.2081 51.6629 56.1382 51.7213C56.0961 51.5953 56.038 51.4728 55.9661 51.358C55.855 51.8063 55.4004 52.0135 55.0468 52.2778C54.7947 52.4665 54.5798 52.7033 54.4143 52.9758C54.2989 53.1657 54.2055 53.381 54.2112 53.6193C54.2267 54.2782 54.8488 54.5464 55.3659 54.4364Z" fill="#D6BF87"/>
<path fill-rule="evenodd" clip-rule="evenodd" d="M48.5601 53.7954C49.4556 53.5503 49.9173 52.5661 50.7829 52.2505C50.6692 52.2304 50.5562 52.1946 50.4473 52.1446C50.4709 52.0337 50.4944 51.9228 50.518 51.8121C50.4155 51.8128 50.3129 51.8135 50.2103 51.8142C50.1966 51.6662 50.1828 51.5177 50.1691 51.3698C50.0666 51.4074 49.9639 51.4446 49.8612 51.4817C49.8048 51.354 49.7483 51.2262 49.6919 51.0983C49.6326 51.1387 49.5732 51.1789 49.514 51.2196C49.4707 51.0909 49.4277 50.9628 49.3847 50.8346C49.3184 50.8972 49.252 50.9593 49.1858 51.0218C49.1378 50.8976 49.0739 50.7775 48.9965 50.6658C48.9094 51.1228 48.4696 51.3559 48.1327 51.6408C47.8927 51.8444 47.692 52.0945 47.5419 52.3774C47.4372 52.5747 47.3557 52.7963 47.3736 53.0359C47.4229 53.698 48.0534 53.9341 48.5601 53.7954Z" fill="#D6BF87"/>
<path fill-rule="evenodd" clip-rule="evenodd" d="M54.7167 54.376L54.4209 54.1688L54.0244 54.4746L54.4977 54.5652L54.7167 54.376Z" fill="#D6BF87"/>
<path fill-rule="evenodd" clip-rule="evenodd" d="M47.6996 53.6545L47.3358 54.0566C47.3358 54.0566 46.8554 54.051 46.8634 54.0428C46.8711 54.0341 47.4671 53.3878 47.4671 53.3878L47.6996 53.6545Z" fill="#D6BF87"/>
<path fill-rule="evenodd" clip-rule="evenodd" d="M47.9749 52.5263C48.0563 52.2659 48.2288 52.0568 48.4139 51.8701C48.5993 51.6838 48.8012 51.5128 48.9594 51.301C48.7456 51.4714 48.5318 51.6418 48.3179 51.8122C48.1203 51.9694 47.92 52.1298 47.7806 52.3438C47.6412 52.5577 47.5682 52.836 47.6461 53.109C47.6873 53.2535 47.7741 53.3951 47.9007 53.4798C47.952 53.5139 48.4157 53.563 48.3454 53.6131C48.3168 53.6335 48.054 53.2982 48.0265 53.2442C47.9094 53.0129 47.9058 52.7463 47.9749 52.5263Z" fill="#D6BF87"/>
<path fill-rule="evenodd" clip-rule="evenodd" d="M54.8879 53.2208C54.9694 52.9606 55.1419 52.7513 55.3271 52.5649C55.5123 52.3781 55.7144 52.2076 55.8726 51.9958C55.6588 52.1662 55.4449 52.3366 55.2309 52.5066C55.0334 52.6642 54.8332 52.8245 54.6937 53.0384C54.5542 53.2522 54.4812 53.5307 54.5592 53.8038C54.6005 53.9481 54.6871 54.0898 54.8137 54.1742C54.865 54.2085 55.3289 54.2576 55.2584 54.3077C55.2299 54.328 54.967 53.9928 54.9397 53.9388C54.8226 53.7077 54.819 53.4412 54.8879 53.2208Z" fill="#D6BF87"/>
<path fill-rule="evenodd" clip-rule="evenodd" d="M43.8053 53.3113C43.7169 52.8583 43.5442 52.3634 43.1557 52.0912C43.1292 52.0727 43.0977 52.0544 43.0699 52.0623C43.0091 52.0785 43.0388 52.175 43.0751 52.2358C43.3533 52.7013 43.4671 53.2373 43.4734 53.7487C43.4798 54.2601 43.385 54.7527 43.2746 55.2348C43.1975 55.5715 43.1126 55.9066 43.0716 56.2549C43.0469 56.4624 42.9777 56.7878 43.0372 57.0027C43.1148 57.2835 43.2043 57.0945 43.2996 56.9196C43.4867 56.5763 43.6322 56.2054 43.7345 55.8173C43.9429 55.0284 43.9722 54.1652 43.8053 53.3113Z" fill="#D6BF87"/>
<path fill-rule="evenodd" clip-rule="evenodd" d="M56.9039 53.2338C56.6184 53.3963 56.3957 53.6492 56.1069 53.8066C56.0665 53.8287 56.0224 53.8494 55.9734 53.845C55.9245 53.8405 55.8705 53.8026 55.8624 53.7524C55.8576 53.7222 55.8697 53.6943 55.8833 53.6697C55.9555 53.5398 56.0753 53.4493 56.1925 53.3619C56.3674 53.2314 56.5423 53.1009 56.7172 52.9704C56.8075 52.903 57.0408 52.7835 57.1442 52.9569C57.2293 53.0996 56.9868 53.1866 56.9039 53.2338Z" fill="#D6BF87"/>
<path fill-rule="evenodd" clip-rule="evenodd" d="M50.2421 52.2703C50.2242 52.3287 50.1627 52.3543 50.1082 52.3777C49.6717 52.5648 49.3678 52.9508 48.9835 53.2219C48.9431 53.25 48.8945 53.2782 48.8428 53.261C48.7808 53.2408 48.7466 53.1605 48.7566 53.0986C48.7664 53.0365 48.8075 52.9895 48.8478 52.9457C49.126 52.6463 49.4415 52.3835 49.7863 52.1637C49.8381 52.1304 49.892 52.0977 49.9547 52.0876C50.0293 52.075 50.2792 52.1485 50.2421 52.2703Z" fill="#D6BF87"/>
<path fill-rule="evenodd" clip-rule="evenodd" d="M39.1139 16.8972C38.6669 16.9524 37.3048 16.8271 36.5588 16.5247C35.3298 16.0263 34.0625 15.6886 33.3876 15.0999C32.5326 14.354 29.7196 12.7992 28.6754 8.47843C28.4727 7.63953 28.4938 7.29118 28.2595 7.30091C28.14 7.30573 28.0456 7.96187 28.1661 8.71314C28.2795 9.41869 28.0684 9.34141 27.674 8.42165C27.2955 7.5393 27.0507 6.8108 26.9557 6.07757C26.8838 5.52105 26.4501 6.02991 26.5465 6.84813C26.6282 7.54491 27.1275 8.9164 27.6162 9.68074C28.0337 10.3336 27.7222 10.3506 27.2835 9.78736C26.8448 9.22428 26.2255 8.36199 25.8928 7.41822C25.56 6.47454 25.5413 7.79479 25.6972 8.30057C26.1057 9.62468 27.1019 10.8378 27.6466 11.3856C28.1913 11.9335 27.9643 12.0707 27.45 11.6899C26.9355 11.3095 26.7434 11.2432 26.1536 10.6192C25.5634 9.99519 25.3366 10.2843 25.8661 10.9389C26.3957 11.5933 26.9379 12.1235 27.5861 12.6337C27.9338 12.9078 28.2201 13.1911 27.7072 13.1209C27.3742 13.0751 26.8599 12.7099 26.6332 12.4816C26.4062 12.2531 26.0246 12.2482 26.3607 12.6946C26.7392 13.1969 27.6344 14.0207 28.3575 14.2776C28.6149 14.3689 28.4029 14.5363 27.8582 14.4146C27.3136 14.2929 27.6921 14.6886 27.9643 14.8256C28.2368 14.9624 28.6754 15.1148 28.9931 15.1756C29.3107 15.2365 29.2048 15.3734 28.9326 15.3886C28.6601 15.404 28.4484 15.3811 28.2895 15.3278C28.1308 15.2745 28.2518 15.503 28.4257 15.5865C28.5999 15.6703 28.9022 15.7616 29.1292 15.7768C29.3559 15.7921 29.288 16.0737 29.0385 16.0127C28.7888 15.9518 28.5163 15.8986 28.645 16.0965C28.7737 16.2944 29.5 16.3934 29.9915 16.4161C30.483 16.4389 30.3091 16.6065 30.0597 16.6672C29.8099 16.7282 29.5829 16.7358 29.4091 16.7358C29.2352 16.7358 29.1215 17.0021 29.5074 17.0249C29.8931 17.0479 30.4296 17.0779 31.2169 17.4739C32.254 17.9957 33.6325 18.4876 34.609 18.3499C35.4714 18.2281 35.0023 17.9829 34.579 18.0302C33.8979 18.1062 33.3197 17.611 32.8506 17.611C32.3818 17.611 31.6783 17.0661 31.2019 17.0021C30.9749 16.9717 30.7933 16.7738 31.0959 16.6978C31.3985 16.6217 31.5039 16.4564 31.474 16.3324C31.4289 16.1422 30.8993 16.3248 30.5663 16.1725C30.3067 16.054 30.342 15.9601 30.5589 15.8073C30.8522 15.6002 30.6419 15.4434 30.2108 15.4359C29.7795 15.4282 29.6966 15.2135 29.9082 15.0538C30.1202 14.8941 30.0065 14.7874 29.7946 14.8027C29.5829 14.8179 29.6124 14.6126 29.7485 14.5667C29.8849 14.5212 29.8459 14.4112 29.6806 14.3917C29.2947 14.3462 29.0345 13.9673 28.7433 13.8437C28.5012 13.7411 28.5163 13.6345 28.6299 13.6459C28.7433 13.6574 28.8736 13.5863 28.6905 13.4405C28.418 13.2235 28.7092 13.1246 28.3237 12.9001C28.0293 12.729 27.9344 12.5598 27.9907 12.4321C28.0629 12.2685 28.524 12.3826 28.5581 12.1429C28.5867 11.9409 27.9704 11.6632 27.987 11.3552C27.9943 11.2145 28.1043 11.2105 28.2214 11.2752C28.3387 11.3401 28.4733 11.3477 28.4371 11.1877C28.3953 11.0051 28.4561 10.929 28.7169 11.0736C29.4167 11.4618 30.2341 12.6233 31.0203 13.821C31.5499 14.6277 32.0952 14.9591 32.5483 15.0843C33.1532 15.2519 34.3258 16.0517 34.8327 16.515C35.1654 16.8195 35.4225 17.0175 36.0277 16.8956C36.6328 16.7738 37.2835 16.9108 37.7978 17.1543C38.312 17.3979 38.8024 17.6892 39.2653 17.0935C39.4542 16.85 39.418 16.8598 39.1139 16.8972Z" fill="#D6BF87" stroke="#D6BF87" stroke-width="0.5669"/>
<path fill-rule="evenodd" clip-rule="evenodd" d="M42.7144 17.1543C41.3667 17.1794 40.5354 17.3231 40.2181 17.5957C39.5978 18.1285 39.4769 17.8545 39.1893 18.0523C38.902 18.2502 38.6599 18.2731 38.5238 18.1894C38.3875 18.1056 38.3573 18.0143 38.6372 17.9459C38.9171 17.8773 39.1361 17.6334 39.2726 17.4892C39.7189 17.0174 40.4859 16.8986 41.1108 16.7738C43.1681 16.3628 46.1996 15.248 48.265 12.5511C49.6876 10.6936 50.1736 8.73162 50.4288 6.93283C50.5195 6.2936 50.8316 6.45404 50.877 6.88026C50.9222 7.30642 50.8165 8.34139 50.7407 8.67625C50.6651 9.01119 50.7321 9.27762 51.0433 8.78287C51.5124 8.03702 51.9661 6.49977 52.1022 5.73868C52.2386 4.97757 52.4985 5.05327 52.5108 5.76925C52.5292 6.83016 52.03 8.49147 51.0955 9.92439C50.7238 10.4943 50.9059 10.7033 51.4131 10.1223C52.1452 9.28341 52.4715 8.83912 52.8324 8.00303C53.1396 7.29117 53.3808 7.43005 53.12 8.32264C52.7414 9.61651 52.0033 10.5485 51.3831 11.2487C50.7628 11.9488 51.0045 11.9488 51.3677 11.827C51.7308 11.7052 52.3336 11.1749 52.7876 10.5662C53.2413 9.95716 53.3931 10.23 53.0858 10.8001C52.8001 11.331 52.03 12.239 51.5041 12.7554C51.0903 13.1618 51.4586 13.1816 51.7308 12.9229C52.0033 12.6641 52.215 12.3445 52.5025 12.2685C52.7897 12.1924 53.1439 12.1988 52.4269 12.9532C52.0939 13.3034 51.0955 14.034 50.6114 14.2624C50.1272 14.4907 50.3088 14.6734 50.6869 14.582C51.0651 14.4907 51.6552 14.1762 51.6552 14.3537C51.6552 14.5516 51.2166 14.7342 50.8534 14.8863C50.4639 15.0497 50.24 15.4114 50.7097 15.4114C50.929 15.4114 50.8685 15.5943 50.6719 15.6323C50.4752 15.6703 50.102 15.6927 50.0743 15.8605C50.0593 15.9518 50.2028 16.0204 50.3238 16.0279C50.4449 16.0357 50.4587 16.1328 50.2937 16.2564C49.7641 16.6519 49.0532 16.4238 48.7657 16.6368C48.4784 16.85 48.7657 16.8336 49.1211 16.8271C49.537 16.8195 49.9008 17.1436 49.3177 17.1543C48.4932 17.1695 47.4432 17.4011 46.5719 17.8087C45.9216 18.1132 45.4091 17.7838 46.2848 17.4588C46.7762 17.2761 47.4834 17.0153 47.7218 16.8956C48.2664 16.6217 47.3686 16.721 47.9411 16.3704C48.115 16.2638 48.5009 16.2564 48.5009 16.1193C48.5009 15.9824 48.1405 15.9089 48.4329 15.7541C48.5765 15.6779 48.8563 15.6551 49.0154 15.6703C49.1743 15.6855 49.3254 15.465 49.0756 15.3963C48.8262 15.3278 48.8339 15.1909 49.1211 15.1223C49.4087 15.0538 49.7109 14.9701 49.87 14.8941C50.0289 14.8179 50.0061 14.6809 49.7109 14.6658C49.4164 14.6506 49.3794 14.5349 49.6507 14.4375C49.9683 14.3233 50.3769 14.0873 50.6264 13.9275C50.8762 13.7676 50.8307 13.6763 50.581 13.6003C50.3315 13.5242 50.3005 13.478 50.5281 13.3492C50.7702 13.2121 50.9619 13.0599 51.0123 12.9152C51.065 12.7631 51.1022 12.605 50.823 12.6261C50.5207 12.6489 50.3693 12.6489 50.3994 12.3292C50.4298 12.0097 50.5016 11.9064 50.6869 11.6899C50.8762 11.4693 50.7226 11.2962 50.2559 11.477C49.4692 11.7813 49.2344 11.8575 48.8717 12.4055C48.5085 12.9532 48.0548 13.5623 47.8124 14.0645C47.5703 14.5667 46.9956 15.1148 46.4358 15.2669C45.8762 15.4191 44.6142 15.9975 44.0759 16.4238C43.3648 16.9869 43.5312 17.1391 42.7144 17.1543Z" fill="#D6BF87" stroke="#D6BF87" stroke-width="0.5669"/>
<path fill-rule="evenodd" clip-rule="evenodd" d="M36.2847 19.4147C36.0198 19.2777 35.9971 19.0569 36.4208 18.9808C36.8128 18.9106 36.8066 18.92 37.0032 18.821C37.2001 18.7221 37.911 18.3796 38.2286 18.3721C38.5463 18.3643 38.5085 18.6079 38.2136 18.6156C37.9187 18.6232 37.2303 18.958 36.9882 19.133C36.7461 19.308 36.6251 19.3384 36.4963 19.308C36.3679 19.2777 36.3151 19.331 36.2847 19.4147Z" fill="#D6BF87" stroke="#D6BF87" stroke-width="0.5669"/>
<path fill-rule="evenodd" clip-rule="evenodd" d="M35.6268 20.4648C35.3393 20.1453 35.6268 19.7951 36.0428 19.6201C36.1585 19.5715 36.3075 19.8028 36.7239 19.7646C37.1398 19.7266 37.5751 19.6689 37.3515 19.4298C37.2304 19.3006 37.177 19.1787 37.3665 19.1787C37.4424 19.1787 37.5103 19.1711 37.5708 19.133C37.6313 19.095 37.7296 19.0798 37.8051 19.1216C37.8807 19.1634 37.9529 19.1748 38.0589 19.1596C38.1646 19.1444 38.25 19.2271 38.1308 19.3233C37.8657 19.5363 38.0626 19.7039 38.2515 19.6734C38.4407 19.643 38.7661 19.6277 38.9476 19.6885C39.1292 19.7494 39.3031 19.7571 39.4469 19.7266C39.5903 19.6962 39.8742 19.7197 40.1728 19.8484C40.5436 20.0083 40.4864 20.2444 40.1728 20.1908C39.4165 20.0615 38.8263 20.0311 38.4029 20.1071C37.9794 20.1833 37.2716 20.118 36.7994 20.0463C36.3985 19.9854 36.005 19.9474 35.6268 20.4648Z" fill="#D6BF87" stroke="#D6BF87" stroke-width="0.5669"/>
<path fill-rule="evenodd" clip-rule="evenodd" d="M38.4476 20.6018C38.228 20.9416 37.8879 21.1726 37.5098 21.2791C37.1316 21.3858 36.95 21.5228 37.4188 21.5835C37.8879 21.6446 38.0694 21.5379 38.3115 21.4313C38.5536 21.3249 38.6326 21.0903 38.7957 21.3858C38.9471 21.6598 39.1361 21.6308 39.4236 21.3553C39.5825 21.203 39.6958 21.0966 39.8697 21.1042C40.0438 21.1118 40.089 21.1498 39.9606 21.3172C39.8319 21.4848 39.9455 21.7739 40.2101 21.5228C40.4749 21.2716 40.6036 21.1118 40.8153 21.1192C41.0272 21.127 40.9818 21.2184 40.8302 21.3629C40.6792 21.5075 40.5959 21.6369 40.9138 21.6065C41.2315 21.576 41.3826 21.5379 41.4963 21.3324C41.6096 21.127 41.6926 21.028 41.9651 21.2488C42.2376 21.4695 42.3811 21.6598 42.5098 21.4238C42.6385 21.1878 42.7064 21.1192 42.8578 21.2488C43.0618 21.4238 43.7429 21.2791 43.7883 20.9595C43.8083 20.8161 43.8261 20.6324 44.0603 20.8377C44.2949 21.0433 44.7563 20.9748 44.764 20.7161C44.7714 20.4573 44.9151 20.4192 45.1495 20.5105C45.3842 20.6018 45.6715 20.6398 45.823 20.5029C45.9741 20.3659 46.0196 20.2822 45.9213 20.0844C45.823 19.8864 45.8543 19.6936 46.1556 19.8104C46.6474 20.0005 47.2072 20.1834 47.57 19.742C47.9334 19.3006 48.0545 19.1939 47.4489 19.2091C46.8438 19.2243 45.7548 19.1331 45.2555 19.0721C44.7563 19.0113 44.0907 18.882 43.9469 18.882C43.8031 18.882 43.7653 18.9276 43.7806 19.0266C43.7957 19.1254 43.5991 19.1254 43.5764 19.27C43.5536 19.4147 43.4476 19.4908 43.2888 19.4147C43.13 19.3384 43.0922 19.3918 43.1527 19.544C43.2132 19.6962 43.2001 19.8394 42.9862 19.7952C42.4342 19.6811 42.1119 19.8858 41.6926 20.0691C40.8229 20.4497 40.2709 20.5029 39.5898 20.4267C38.9093 20.3507 38.6596 20.2746 38.4476 20.6018Z" fill="#D6BF87" stroke="#D6BF87" stroke-width="0.5669"/>
</g>
<defs>
<clipPath id="clip0_1186_7066">
<rect width="79" height="78" fill="white"/>
</clipPath>
</defs>
</svg>
